<svg width="521" height="110" viewBox="0 0 521 110" fill="none" xmlns="http://www.w3.org/2000/svg">
<path d="M33.1562 45H29.3867V31.8555H15.0508V45H11.3008V16.5625H15.0508V28.7891H29.3867V16.5625H33.1562V45ZM47.2195 45.3906C44.3549 45.3906 42.0242 44.4531 40.2273 42.5781C38.4305 40.6901 37.532 38.1706 37.532 35.0195V34.3555C37.532 32.2591 37.9292 30.3906 38.7234 28.75C39.5307 27.0964 40.6505 25.8073 42.0828 24.8828C43.5281 23.9453 45.0906 23.4766 46.7703 23.4766C49.5177 23.4766 51.6531 24.3815 53.1766 26.1914C54.7 28.0013 55.4617 30.5924 55.4617 33.9648V35.4688H41.1453C41.1974 37.5521 41.8029 39.2383 42.9617 40.5273C44.1336 41.8034 45.618 42.4414 47.4148 42.4414C48.6909 42.4414 49.7716 42.181 50.657 41.6602C51.5424 41.1393 52.3172 40.4492 52.9813 39.5898L55.1883 41.3086C53.4174 44.0299 50.7612 45.3906 47.2195 45.3906ZM46.7703 26.4453C45.312 26.4453 44.088 26.9792 43.0984 28.0469C42.1089 29.1016 41.4969 30.5859 41.2625 32.5H51.8484V32.2266C51.7443 30.3906 51.2495 28.9714 50.3641 27.9688C49.4786 26.9531 48.2807 26.4453 46.7703 26.4453ZM65.5016 39.707L70.4234 23.8672H74.2906L65.7945 48.2617C64.4794 51.7773 62.3896 53.5352 59.525 53.5352L58.8414 53.4766L57.4938 53.2227V50.293L58.4703 50.3711C59.6943 50.3711 60.6448 50.1237 61.3219 49.6289C62.012 49.1341 62.5784 48.2292 63.0211 46.9141L63.8219 44.7656L56.2828 23.8672H60.2281L65.5016 39.707ZM74.5062 50.6641L72.4555 49.2578C73.6794 47.5521 74.3174 45.7943 74.3695 43.9844V40.7227H77.9047V43.5547C77.9047 44.8698 77.5792 46.1849 76.9281 47.5C76.2901 48.8151 75.4828 49.8698 74.5062 50.6641ZM97.4961 36.0352L98.043 39.7852L98.8438 36.4062L104.469 16.5625H107.633L113.121 36.4062L113.902 39.8438L114.508 36.0156L118.922 16.5625H122.691L115.797 45H112.379L106.52 24.2773L106.07 22.1094L105.621 24.2773L99.5469 45H96.1289L89.2539 16.5625H93.0039L97.4961 36.0352ZM133.649 45.3906C130.785 45.3906 128.454 44.4531 126.657 42.5781C124.86 40.6901 123.962 38.1706 123.962 35.0195V34.3555C123.962 32.2591 124.359 30.3906 125.153 28.75C125.96 27.0964 127.08 25.8073 128.512 24.8828C129.958 23.9453 131.52 23.4766 133.2 23.4766C135.947 23.4766 138.083 24.3815 139.606 26.1914C141.13 28.0013 141.891 30.5924 141.891 33.9648V35.4688H127.575C127.627 37.5521 128.233 39.2383 129.391 40.5273C130.563 41.8034 132.048 42.4414 133.845 42.4414C135.121 42.4414 136.201 42.181 137.087 41.6602C137.972 41.1393 138.747 40.4492 139.411 39.5898L141.618 41.3086C139.847 44.0299 137.191 45.3906 133.649 45.3906ZM133.2 26.4453C131.742 26.4453 130.518 26.9792 129.528 28.0469C128.539 29.1016 127.927 30.5859 127.692 32.5H138.278V32.2266C138.174 30.3906 137.679 28.9714 136.794 27.9688C135.908 26.9531 134.71 26.4453 133.2 26.4453ZM167.459 45C167.251 44.5833 167.082 43.8411 166.952 42.7734C165.272 44.5182 163.267 45.3906 160.936 45.3906C158.853 45.3906 157.14 44.8047 155.799 43.6328C154.471 42.4479 153.807 40.9505 153.807 39.1406C153.807 36.9401 154.64 35.2344 156.307 34.0234C157.987 32.7995 160.343 32.1875 163.377 32.1875H166.893V30.5273C166.893 29.2643 166.515 28.2617 165.76 27.5195C165.005 26.7643 163.892 26.3867 162.42 26.3867C161.131 26.3867 160.051 26.7122 159.178 27.3633C158.306 28.0143 157.87 28.8021 157.87 29.7266H154.237C154.237 28.6719 154.608 27.6562 155.35 26.6797C156.105 25.6901 157.121 24.9089 158.397 24.3359C159.686 23.763 161.099 23.4766 162.635 23.4766C165.07 23.4766 166.978 24.0885 168.358 25.3125C169.738 26.5234 170.454 28.1966 170.506 30.332V40.0586C170.506 41.9987 170.754 43.5417 171.248 44.6875V45H167.459ZM161.463 42.2461C162.596 42.2461 163.67 41.9531 164.686 41.3672C165.702 40.7812 166.437 40.0195 166.893 39.082V34.7461H164.061C159.634 34.7461 157.42 36.0417 157.42 38.6328C157.42 39.7656 157.798 40.651 158.553 41.2891C159.308 41.9271 160.278 42.2461 161.463 42.2461ZM185.585 27.1094C185.038 27.0182 184.446 26.9727 183.808 26.9727C181.438 26.9727 179.83 27.9818 178.984 30V45H175.37V23.8672H178.886L178.945 26.3086C180.129 24.4206 181.809 23.4766 183.984 23.4766C184.687 23.4766 185.221 23.5677 185.585 23.75V27.1094ZM196.504 45.3906C193.639 45.3906 191.309 44.4531 189.512 42.5781C187.715 40.6901 186.816 38.1706 186.816 35.0195V34.3555C186.816 32.2591 187.214 30.3906 188.008 28.75C188.815 27.0964 189.935 25.8073 191.367 24.8828C192.812 23.9453 194.375 23.4766 196.055 23.4766C198.802 23.4766 200.938 24.3815 202.461 26.1914C203.984 28.0013 204.746 30.5924 204.746 33.9648V35.4688H190.43C190.482 37.5521 191.087 39.2383 192.246 40.5273C193.418 41.8034 194.902 42.4414 196.699 42.4414C197.975 42.4414 199.056 42.181 199.941 41.6602C200.827 41.1393 201.602 40.4492 202.266 39.5898L204.473 41.3086C202.702 44.0299 200.046 45.3906 196.504 45.3906ZM196.055 26.4453C194.596 26.4453 193.372 26.9792 192.383 28.0469C191.393 29.1016 190.781 30.5859 190.547 32.5H201.133V32.2266C201.029 30.3906 200.534 28.9714 199.648 27.9688C198.763 26.9531 197.565 26.4453 196.055 26.4453ZM222.17 18.75V23.8672H226.115V26.6602H222.17V39.7656C222.17 40.612 222.345 41.25 222.697 41.6797C223.048 42.0964 223.647 42.3047 224.494 42.3047C224.91 42.3047 225.483 42.2266 226.212 42.0703V45C225.262 45.2604 224.337 45.3906 223.439 45.3906C221.824 45.3906 220.607 44.9023 219.787 43.9258C218.966 42.9492 218.556 41.5625 218.556 39.7656V26.6602H214.709V23.8672H218.556V18.75H222.17ZM233.166 26.4258C234.768 24.4596 236.851 23.4766 239.416 23.4766C243.883 23.4766 246.135 25.9961 246.174 31.0352V45H242.561V31.0156C242.548 29.4922 242.196 28.3659 241.506 27.6367C240.829 26.9076 239.768 26.543 238.323 26.543C237.151 26.543 236.122 26.8555 235.237 27.4805C234.351 28.1055 233.661 28.9258 233.166 29.9414V45H229.553V15H233.166V26.4258ZM259.554 45.3906C256.689 45.3906 254.359 44.4531 252.562 42.5781C250.765 40.6901 249.866 38.1706 249.866 35.0195V34.3555C249.866 32.2591 250.264 30.3906 251.058 28.75C251.865 27.0964 252.985 25.8073 254.417 24.8828C255.863 23.9453 257.425 23.4766 259.105 23.4766C261.852 23.4766 263.988 24.3815 265.511 26.1914C267.034 28.0013 267.796 30.5924 267.796 33.9648V35.4688H253.48C253.532 37.5521 254.137 39.2383 255.296 40.5273C256.468 41.8034 257.952 42.4414 259.749 42.4414C261.025 42.4414 262.106 42.181 262.991 41.6602C263.877 41.1393 264.652 40.4492 265.316 39.5898L267.523 41.3086C265.752 44.0299 263.096 45.3906 259.554 45.3906ZM259.105 26.4453C257.646 26.4453 256.422 26.9792 255.433 28.0469C254.443 29.1016 253.831 30.5859 253.597 32.5H264.183V32.2266C264.079 30.3906 263.584 28.9714 262.698 27.9688C261.813 26.9531 260.615 26.4453 259.105 26.4453ZM11.3008 92V63.5625H20.5977C23.6836 63.5625 26.0013 64.2005 27.5508 65.4766C29.1133 66.7526 29.8945 68.6406 29.8945 71.1406C29.8945 72.4688 29.5169 73.6471 28.7617 74.6758C28.0065 75.6914 26.9779 76.4792 25.6758 77.0391C27.2122 77.4688 28.4232 78.2891 29.3086 79.5C30.207 80.6979 30.6562 82.1302 30.6562 83.7969C30.6562 86.349 29.8294 88.3542 28.1758 89.8125C26.5221 91.2708 24.1849 92 21.1641 92H11.3008ZM15.0508 78.6992V88.9336H21.2422C22.987 88.9336 24.3607 88.4844 25.3633 87.5859C26.3789 86.6745 26.8867 85.4245 26.8867 83.8359C26.8867 80.4115 25.0247 78.6992 21.3008 78.6992H15.0508ZM15.0508 75.6914H20.7148C22.3555 75.6914 23.6641 75.2812 24.6406 74.4609C25.6302 73.6406 26.125 72.5273 26.125 71.1211C26.125 69.5586 25.6693 68.4258 24.7578 67.7227C23.8464 67.0065 22.4596 66.6484 20.5977 66.6484H15.0508V75.6914ZM45.0711 74.1094C44.5242 74.0182 43.9318 73.9727 43.2938 73.9727C40.924 73.9727 39.3159 74.9818 38.4695 77V92H34.8563V70.8672H38.3719L38.4305 73.3086C39.6154 71.4206 41.2951 70.4766 43.4695 70.4766C44.1727 70.4766 44.7065 70.5677 45.0711 70.75V74.1094ZM51.5367 92H47.9234V70.8672H51.5367V92ZM47.6305 65.2617C47.6305 64.6758 47.8063 64.181 48.1578 63.7773C48.5224 63.3737 49.0563 63.1719 49.7594 63.1719C50.4625 63.1719 50.9964 63.3737 51.3609 63.7773C51.7255 64.181 51.9078 64.6758 51.9078 65.2617C51.9078 65.8477 51.7255 66.3359 51.3609 66.7266C50.9964 67.1172 50.4625 67.3125 49.7594 67.3125C49.0563 67.3125 48.5224 67.1172 48.1578 66.7266C47.8063 66.3359 47.6305 65.8477 47.6305 65.2617ZM65.307 92.3906C62.4424 92.3906 60.1117 91.4531 58.3148 89.5781C56.518 87.6901 55.6195 85.1706 55.6195 82.0195V81.3555C55.6195 79.2591 56.0167 77.3906 56.8109 75.75C57.6182 74.0964 58.738 72.8073 60.1703 71.8828C61.6156 70.9453 63.1781 70.4766 64.8578 70.4766C67.6052 70.4766 69.7406 71.3815 71.2641 73.1914C72.7875 75.0013 73.5492 77.5924 73.5492 80.9648V82.4688H59.2328C59.2849 84.5521 59.8904 86.2383 61.0492 87.5273C62.2211 88.8034 63.7055 89.4414 65.5023 89.4414C66.7784 89.4414 67.8591 89.181 68.7445 88.6602C69.6299 88.1393 70.4047 87.4492 71.0687 86.5898L73.2758 88.3086C71.5049 91.0299 68.8487 92.3906 65.307 92.3906ZM64.8578 73.4453C63.3995 73.4453 62.1755 73.9792 61.1859 75.0469C60.1964 76.1016 59.5844 77.5859 59.35 79.5H69.9359V79.2266C69.8318 77.3906 69.337 75.9714 68.4516 74.9688C67.5661 73.9531 66.3682 73.4453 64.8578 73.4453ZM78.7258 92V73.6602H75.3859V70.8672H78.7258V68.6992C78.7258 66.4336 79.3313 64.6823 80.5422 63.4453C81.7531 62.2083 83.4654 61.5898 85.6789 61.5898C86.5122 61.5898 87.3391 61.7005 88.1594 61.9219L87.9641 64.8516C87.3521 64.7344 86.701 64.6758 86.0109 64.6758C84.8391 64.6758 83.9341 65.0208 83.2961 65.7109C82.6581 66.388 82.3391 67.3646 82.3391 68.6406V70.8672H86.8508V73.6602H82.3391V92H78.7258ZM121.598 92H117.829V78.8555H103.493V92H99.743V63.5625H103.493V75.7891H117.829V63.5625H121.598V92ZM130.818 92H127.205V70.8672H130.818V92ZM126.912 65.2617C126.912 64.6758 127.088 64.181 127.439 63.7773C127.804 63.3737 128.338 63.1719 129.041 63.1719C129.744 63.1719 130.278 63.3737 130.642 63.7773C131.007 64.181 131.189 64.6758 131.189 65.2617C131.189 65.8477 131.007 66.3359 130.642 66.7266C130.278 67.1172 129.744 67.3125 129.041 67.3125C128.338 67.3125 127.804 67.1172 127.439 66.7266C127.088 66.3359 126.912 65.8477 126.912 65.2617ZM148.123 86.3945C148.123 85.418 147.752 84.6628 147.01 84.1289C146.281 83.582 144.998 83.1133 143.162 82.7227C141.34 82.332 139.888 81.8633 138.807 81.3164C137.739 80.7695 136.945 80.1185 136.424 79.3633C135.916 78.6081 135.662 77.7096 135.662 76.668C135.662 74.9362 136.392 73.4714 137.85 72.2734C139.321 71.0755 141.196 70.4766 143.475 70.4766C145.871 70.4766 147.811 71.0951 149.295 72.332C150.793 73.569 151.541 75.151 151.541 77.0781H147.909C147.909 76.0885 147.485 75.2357 146.639 74.5195C145.806 73.8034 144.751 73.4453 143.475 73.4453C142.16 73.4453 141.131 73.7318 140.389 74.3047C139.647 74.8776 139.276 75.6263 139.276 76.5508C139.276 77.4232 139.621 78.0807 140.311 78.5234C141.001 78.9661 142.245 79.3893 144.041 79.793C145.851 80.1966 147.316 80.6784 148.436 81.2383C149.556 81.7982 150.383 82.4753 150.916 83.2695C151.463 84.0508 151.737 85.0078 151.737 86.1406C151.737 88.0286 150.982 89.5456 149.471 90.6914C147.961 91.8242 146.001 92.3906 143.592 92.3906C141.899 92.3906 140.402 92.0911 139.1 91.4922C137.798 90.8932 136.776 90.0599 136.034 88.9922C135.304 87.9115 134.94 86.7461 134.94 85.4961H138.553C138.618 86.707 139.1 87.6706 139.998 88.3867C140.91 89.0898 142.108 89.4414 143.592 89.4414C144.959 89.4414 146.053 89.168 146.873 88.6211C147.707 88.0612 148.123 87.319 148.123 86.3945ZM160.546 65.75V70.8672H164.491V73.6602H160.546V86.7656C160.546 87.612 160.722 88.25 161.073 88.6797C161.425 89.0964 162.024 89.3047 162.87 89.3047C163.287 89.3047 163.86 89.2266 164.589 89.0703V92C163.639 92.2604 162.714 92.3906 161.816 92.3906C160.201 92.3906 158.984 91.9023 158.163 90.9258C157.343 89.9492 156.933 88.5625 156.933 86.7656V73.6602H153.085V70.8672H156.933V65.75H160.546ZM166.582 81.2383C166.582 79.168 166.986 77.306 167.793 75.6523C168.613 73.9987 169.746 72.7227 171.191 71.8242C172.65 70.9258 174.31 70.4766 176.172 70.4766C179.049 70.4766 181.374 71.4727 183.145 73.4648C184.928 75.457 185.82 78.1068 185.82 81.4141V81.668C185.82 83.7253 185.423 85.5742 184.629 87.2148C183.848 88.8424 182.721 90.112 181.25 91.0234C179.792 91.9349 178.112 92.3906 176.211 92.3906C173.346 92.3906 171.022 91.3945 169.238 89.4023C167.467 87.4102 166.582 84.7734 166.582 81.4922V81.2383ZM170.215 81.668C170.215 84.0117 170.755 85.8932 171.836 87.3125C172.93 88.7318 174.388 89.4414 176.211 89.4414C178.047 89.4414 179.505 88.7253 180.586 87.293C181.667 85.8477 182.207 83.8294 182.207 81.2383C182.207 78.9206 181.654 77.0456 180.547 75.6133C179.453 74.168 177.995 73.4453 176.172 73.4453C174.388 73.4453 172.949 74.1549 171.855 75.5742C170.762 76.9935 170.215 79.0247 170.215 81.668ZM199.766 74.1094C199.22 74.0182 198.627 73.9727 197.989 73.9727C195.619 73.9727 194.011 74.9818 193.165 77V92H189.552V70.8672H193.067L193.126 73.3086C194.311 71.4206 195.99 70.4766 198.165 70.4766C198.868 70.4766 199.402 70.5677 199.766 70.75V74.1094ZM209.572 86.707L214.494 70.8672H218.361L209.865 95.2617C208.55 98.7773 206.46 100.535 203.595 100.535L202.912 100.477L201.564 100.223V97.293L202.541 97.3711C203.765 97.3711 204.715 97.1237 205.392 96.6289C206.082 96.1341 206.649 95.2292 207.091 93.9141L207.892 91.7656L200.353 70.8672H204.298L209.572 86.707Z" fill="#4E4B66"/>
<path d="M291.313 33.4961H284.634V45H280.864V16.5625H290.278C293.481 16.5625 295.942 17.2917 297.661 18.75C299.393 20.2083 300.259 22.3307 300.259 25.1172C300.259 26.888 299.777 28.431 298.813 29.7461C297.863 31.0612 296.535 32.0443 294.829 32.6953L301.509 44.7656V45H297.485L291.313 33.4961ZM284.634 30.4297H290.395C292.257 30.4297 293.735 29.9479 294.829 28.9844C295.936 28.0208 296.489 26.7318 296.489 25.1172C296.489 23.3594 295.962 22.0117 294.907 21.0742C293.865 20.1367 292.355 19.6615 290.376 19.6484H284.634V30.4297ZM312.935 45.3906C310.071 45.3906 307.74 44.4531 305.943 42.5781C304.146 40.6901 303.248 38.1706 303.248 35.0195V34.3555C303.248 32.2591 303.645 30.3906 304.439 28.75C305.246 27.0964 306.366 25.8073 307.798 24.8828C309.244 23.9453 310.806 23.4766 312.486 23.4766C315.233 23.4766 317.369 24.3815 318.892 26.1914C320.416 28.0013 321.177 30.5924 321.177 33.9648V35.4688H306.861C306.913 37.5521 307.518 39.2383 308.677 40.5273C309.849 41.8034 311.334 42.4414 313.13 42.4414C314.407 42.4414 315.487 42.181 316.373 41.6602C317.258 41.1393 318.033 40.4492 318.697 39.5898L320.904 41.3086C319.133 44.0299 316.477 45.3906 312.935 45.3906ZM312.486 26.4453C311.028 26.4453 309.804 26.9792 308.814 28.0469C307.824 29.1016 307.212 30.5859 306.978 32.5H317.564V32.2266C317.46 30.3906 316.965 28.9714 316.08 27.9688C315.194 26.9531 313.996 26.4453 312.486 26.4453ZM323.698 34.2578C323.698 31.0156 324.466 28.4115 326.002 26.4453C327.539 24.4661 329.551 23.4766 332.038 23.4766C334.511 23.4766 336.471 24.3229 337.916 26.0156V15H341.53V45H338.209L338.034 42.7344C336.588 44.5052 334.577 45.3906 331.998 45.3906C329.551 45.3906 327.552 44.388 326.002 42.3828C324.466 40.3776 323.698 37.7604 323.698 34.5312V34.2578ZM327.311 34.668C327.311 37.0638 327.806 38.9388 328.795 40.293C329.785 41.6471 331.152 42.3242 332.897 42.3242C335.189 42.3242 336.862 41.2956 337.916 39.2383V29.5312C336.836 27.5391 335.176 26.543 332.936 26.543C331.165 26.543 329.785 27.2266 328.795 28.5938C327.806 29.9609 327.311 31.9857 327.311 34.668ZM372.117 31.8555H359.793V41.9336H374.109V45H356.043V16.5625H373.914V19.6484H359.793V28.7891H372.117V31.8555ZM384.501 31.582L389.188 23.8672H393.407L386.493 34.3164L393.622 45H389.442L384.559 37.0898L379.677 45H375.477L382.606 34.3164L375.692 23.8672H379.872L384.501 31.582ZM414.306 34.668C414.306 37.8841 413.571 40.4753 412.099 42.4414C410.628 44.4076 408.636 45.3906 406.123 45.3906C403.558 45.3906 401.539 44.5768 400.068 42.9492V53.125H396.455V23.8672H399.755L399.931 26.2109C401.403 24.388 403.447 23.4766 406.064 23.4766C408.603 23.4766 410.608 24.4336 412.08 26.3477C413.564 28.2617 414.306 30.9245 414.306 34.3359V34.668ZM410.693 34.2578C410.693 31.875 410.185 29.9935 409.17 28.6133C408.154 27.2331 406.761 26.543 404.99 26.543C402.802 26.543 401.162 27.513 400.068 29.4531V39.5508C401.149 41.4779 402.802 42.4414 405.029 42.4414C406.761 42.4414 408.134 41.7578 409.15 40.3906C410.179 39.0104 410.693 36.9661 410.693 34.2578ZM422.041 45H418.428V15H422.041V45ZM426.085 34.2383C426.085 32.168 426.489 30.306 427.296 28.6523C428.116 26.9987 429.249 25.7227 430.695 24.8242C432.153 23.9258 433.813 23.4766 435.675 23.4766C438.553 23.4766 440.877 24.4727 442.648 26.4648C444.431 28.457 445.323 31.1068 445.323 34.4141V34.668C445.323 36.7253 444.926 38.5742 444.132 40.2148C443.351 41.8424 442.224 43.112 440.753 44.0234C439.295 44.9349 437.615 45.3906 435.714 45.3906C432.849 45.3906 430.525 44.3945 428.741 42.4023C426.971 40.4102 426.085 37.7734 426.085 34.4922V34.2383ZM429.718 34.668C429.718 37.0117 430.258 38.8932 431.339 40.3125C432.433 41.7318 433.891 42.4414 435.714 42.4414C437.55 42.4414 439.008 41.7253 440.089 40.293C441.17 38.8477 441.71 36.8294 441.71 34.2383C441.71 31.9206 441.157 30.0456 440.05 28.6133C438.956 27.168 437.498 26.4453 435.675 26.4453C433.891 26.4453 432.452 27.1549 431.359 28.5742C430.265 29.9935 429.718 32.0247 429.718 34.668ZM459.27 27.1094C458.723 27.0182 458.13 26.9727 457.492 26.9727C455.122 26.9727 453.514 27.9818 452.668 30V45H449.055V23.8672H452.57L452.629 26.3086C453.814 24.4206 455.493 23.4766 457.668 23.4766C458.371 23.4766 458.905 23.5677 459.27 23.75V27.1094ZM470.188 45.3906C467.324 45.3906 464.993 44.4531 463.196 42.5781C461.399 40.6901 460.501 38.1706 460.501 35.0195V34.3555C460.501 32.2591 460.898 30.3906 461.692 28.75C462.499 27.0964 463.619 25.8073 465.052 24.8828C466.497 23.9453 468.059 23.4766 469.739 23.4766C472.486 23.4766 474.622 24.3815 476.145 26.1914C477.669 28.0013 478.43 30.5924 478.43 33.9648V35.4688H464.114C464.166 37.5521 464.772 39.2383 465.93 40.5273C467.102 41.8034 468.587 42.4414 470.384 42.4414C471.66 42.4414 472.74 42.181 473.626 41.6602C474.511 41.1393 475.286 40.4492 475.95 39.5898L478.157 41.3086C476.386 44.0299 473.73 45.3906 470.188 45.3906ZM469.739 26.4453C468.281 26.4453 467.057 26.9792 466.067 28.0469C465.078 29.1016 464.466 30.5859 464.231 32.5H474.817V32.2266C474.713 30.3906 474.218 28.9714 473.333 27.9688C472.447 26.9531 471.249 26.4453 469.739 26.4453ZM492.045 27.1094C491.498 27.0182 490.905 26.9727 490.267 26.9727C487.897 26.9727 486.289 27.9818 485.443 30V45H481.83V23.8672H485.345L485.404 26.3086C486.589 24.4206 488.268 23.4766 490.443 23.4766C491.146 23.4766 491.68 23.5677 492.045 23.75V27.1094ZM506.889 39.3945C506.889 38.418 506.518 37.6628 505.776 37.1289C505.047 36.582 503.764 36.1133 501.928 35.7227C500.105 35.332 498.653 34.8633 497.573 34.3164C496.505 33.7695 495.711 33.1185 495.19 32.3633C494.682 31.6081 494.428 30.7096 494.428 29.668C494.428 27.9362 495.157 26.4714 496.616 25.2734C498.087 24.0755 499.962 23.4766 502.241 23.4766C504.636 23.4766 506.577 24.0951 508.061 25.332C509.558 26.569 510.307 28.151 510.307 30.0781H506.674C506.674 29.0885 506.251 28.2357 505.405 27.5195C504.571 26.8034 503.517 26.4453 502.241 26.4453C500.926 26.4453 499.897 26.7318 499.155 27.3047C498.413 27.8776 498.041 28.6263 498.041 29.5508C498.041 30.4232 498.386 31.0807 499.077 31.5234C499.767 31.9661 501.01 32.3893 502.807 32.793C504.617 33.1966 506.082 33.6784 507.202 34.2383C508.321 34.7982 509.148 35.4753 509.682 36.2695C510.229 37.0508 510.502 38.0078 510.502 39.1406C510.502 41.0286 509.747 42.5456 508.237 43.6914C506.726 44.8242 504.767 45.3906 502.358 45.3906C500.665 45.3906 499.168 45.0911 497.866 44.4922C496.564 43.8932 495.541 43.0599 494.799 41.9922C494.07 40.9115 493.705 39.7461 493.705 38.4961H497.319C497.384 39.707 497.866 40.6706 498.764 41.3867C499.676 42.0898 500.873 42.4414 502.358 42.4414C503.725 42.4414 504.819 42.168 505.639 41.6211C506.472 41.0612 506.889 40.319 506.889 39.3945Z" fill="#14142B"/>
<path d="M246.195 84.5781H234.28L231.605 92H227.738L238.597 63.5625H241.878L252.757 92H248.909L246.195 84.5781ZM235.413 81.4922H245.081L240.238 68.1914L235.413 81.4922ZM273.109 81.668C273.109 84.8971 272.367 87.4948 270.883 89.4609C269.398 91.4141 267.406 92.3906 264.906 92.3906C262.237 92.3906 260.173 91.4466 258.715 89.5586L258.539 92H255.219V62H258.832V73.1914C260.29 71.3815 262.302 70.4766 264.867 70.4766C267.432 70.4766 269.444 71.4466 270.902 73.3867C272.374 75.3268 273.109 77.9831 273.109 81.3555V81.668ZM269.496 81.2578C269.496 78.7969 269.021 76.8958 268.07 75.5547C267.12 74.2135 265.753 73.543 263.969 73.543C261.586 73.543 259.874 74.6497 258.832 76.8633V86.0039C259.939 88.2174 261.664 89.3242 264.008 89.3242C265.74 89.3242 267.087 88.6536 268.051 87.3125C269.014 85.9714 269.496 83.9531 269.496 81.2578ZM275.923 81.2383C275.923 79.168 276.326 77.306 277.134 75.6523C277.954 73.9987 279.087 72.7227 280.532 71.8242C281.99 70.9258 283.651 70.4766 285.513 70.4766C288.39 70.4766 290.714 71.4727 292.485 73.4648C294.269 75.457 295.161 78.1068 295.161 81.4141V81.668C295.161 83.7253 294.764 85.5742 293.97 87.2148C293.188 88.8424 292.062 90.112 290.591 91.0234C289.132 91.9349 287.453 92.3906 285.552 92.3906C282.687 92.3906 280.363 91.3945 278.579 89.4023C276.808 87.4102 275.923 84.7734 275.923 81.4922V81.2383ZM279.555 81.668C279.555 84.0117 280.096 85.8932 281.177 87.3125C282.27 88.7318 283.729 89.4414 285.552 89.4414C287.388 89.4414 288.846 88.7253 289.927 87.293C291.007 85.8477 291.548 83.8294 291.548 81.2383C291.548 78.9206 290.994 77.0456 289.888 75.6133C288.794 74.168 287.335 73.4453 285.513 73.4453C283.729 73.4453 282.29 74.1549 281.196 75.5742C280.102 76.9935 279.555 79.0247 279.555 81.668ZM311.939 89.9102C310.533 91.5638 308.469 92.3906 305.748 92.3906C303.495 92.3906 301.776 91.7396 300.591 90.4375C299.42 89.1224 298.827 87.1823 298.814 84.6172V70.8672H302.427V84.5195C302.427 87.7227 303.729 89.3242 306.334 89.3242C309.094 89.3242 310.93 88.2956 311.841 86.2383V70.8672H315.455V92H312.017L311.939 89.9102ZM325.065 65.75V70.8672H329.01V73.6602H325.065V86.7656C325.065 87.612 325.241 88.25 325.592 88.6797C325.944 89.0964 326.543 89.3047 327.389 89.3047C327.806 89.3047 328.379 89.2266 329.108 89.0703V92C328.157 92.2604 327.233 92.3906 326.334 92.3906C324.72 92.3906 323.502 91.9023 322.682 90.9258C321.862 89.9492 321.452 88.5625 321.452 86.7656V73.6602H317.604V70.8672H321.452V65.75H325.065ZM362.156 63.5625V82.8984C362.143 85.5807 361.297 87.7747 359.617 89.4805C357.951 91.1862 355.685 92.1432 352.82 92.3516L351.824 92.3906C348.712 92.3906 346.232 91.5508 344.383 89.8711C342.534 88.1914 341.596 85.8802 341.57 82.9375V63.5625H345.281V82.8203C345.281 84.8776 345.848 86.4792 346.98 87.625C348.113 88.7578 349.728 89.3242 351.824 89.3242C353.947 89.3242 355.568 88.7578 356.688 87.625C357.82 86.4922 358.387 84.8971 358.387 82.8398V63.5625H362.156ZM379.013 86.3945C379.013 85.418 378.641 84.6628 377.899 84.1289C377.17 83.582 375.888 83.1133 374.052 82.7227C372.229 82.332 370.777 81.8633 369.696 81.3164C368.628 80.7695 367.834 80.1185 367.313 79.3633C366.805 78.6081 366.552 77.7096 366.552 76.668C366.552 74.9362 367.281 73.4714 368.739 72.2734C370.21 71.0755 372.085 70.4766 374.364 70.4766C376.76 70.4766 378.7 71.0951 380.184 72.332C381.682 73.569 382.43 75.151 382.43 77.0781H378.798C378.798 76.0885 378.374 75.2357 377.528 74.5195C376.695 73.8034 375.64 73.4453 374.364 73.4453C373.049 73.4453 372.02 73.7318 371.278 74.3047C370.536 74.8776 370.165 75.6263 370.165 76.5508C370.165 77.4232 370.51 78.0807 371.2 78.5234C371.89 78.9661 373.134 79.3893 374.93 79.793C376.74 80.1966 378.205 80.6784 379.325 81.2383C380.445 81.7982 381.272 82.4753 381.805 83.2695C382.352 84.0508 382.626 85.0078 382.626 86.1406C382.626 88.0286 381.871 89.5456 380.36 90.6914C378.85 91.8242 376.89 92.3906 374.481 92.3906C372.789 92.3906 371.291 92.0911 369.989 91.4922C368.687 90.8932 367.665 90.0599 366.923 88.9922C366.194 87.9115 365.829 86.7461 365.829 85.4961H369.442C369.507 86.707 369.989 87.6706 370.888 88.3867C371.799 89.0898 372.997 89.4414 374.481 89.4414C375.848 89.4414 376.942 89.168 377.763 88.6211C378.596 88.0612 379.013 87.319 379.013 86.3945ZM386.611 90.1055C386.611 89.4805 386.793 88.9596 387.158 88.543C387.535 88.1263 388.095 87.918 388.837 87.918C389.58 87.918 390.14 88.1263 390.517 88.543C390.908 88.9596 391.103 89.4805 391.103 90.1055C391.103 90.7044 390.908 91.2057 390.517 91.6094C390.14 92.013 389.58 92.2148 388.837 92.2148C388.095 92.2148 387.535 92.013 387.158 91.6094C386.793 91.2057 386.611 90.7044 386.611 90.1055Z" fill="#FFA500"/>
<path d="M227.191 95.9062H393.526V97.8594H227.191V95.9062Z" fill="#FFA500"/>
</svg>
